<svg width="60" height="60" viewBox="0 0 60 60" fill="none" xmlns="http://www.w3.org/2000/svg">
<g id="Group 12664">
<g id="Group 12662">
<circle id="Ellipse 361" cx="30" cy="30" r="29" fill="#6231AD" stroke="#FFE200" stroke-width="2"/>
<g id="Group 12661">
<path id="Fill 5" fill-rule="evenodd" clip-rule="evenodd" d="M36.6404 12.1677L46.6331 9.86572L47.1038 10.9643L43.2848 16.6146C43.2848 16.6146 41.4536 29.0662 41.2966 29.9033C41.1397 30.7404 38.7855 39.3204 38.7855 39.3204L40.6164 44.1337C40.6164 44.1337 32.3504 44.5522 31.5132 44.0813C30.6763 43.6105 17.4399 31.3159 17.4399 31.3159C17.4399 31.3159 13.3591 31.996 13.0975 32.1529C12.8359 32.3099 11.2665 32.7284 11.2665 32.7284C11.2665 32.7284 11.2665 27.3397 12.2081 25.7179C13.1497 24.0961 27.7988 15.1497 28.3219 14.9405C28.845 14.7312 36.6404 12.1677 36.6404 12.1677Z" fill="#F2AF2A"/>
<path id="Fill 6" fill-rule="evenodd" clip-rule="evenodd" d="M25.5228 33.5644L26.0722 31.6418L22.0308 26.9332C22.0308 26.9332 19.2448 24.3827 17.5575 23.6764C16.8781 23.392 15.8294 23.4133 14.6783 23.6423C13.3589 24.5893 12.4238 25.3453 12.2081 25.7168C11.2665 27.3386 11.2665 32.7273 11.2665 32.7273C11.2665 32.7273 12.8359 32.3087 13.0975 32.1518C13.1638 32.112 13.4756 32.0387 13.9037 31.9514C14.4442 31.4681 15.0786 30.9392 15.8311 30.4252C19.0487 28.228 25.5228 33.5644 25.5228 33.5644Z" fill="#D5412B"/>
<path id="Fill 7" fill-rule="evenodd" clip-rule="evenodd" d="M46.6332 9.86572L40.6838 11.2361C39.8894 11.8565 39.2825 12.3507 39.2825 12.3507L43.2586 12.4815L40.538 15.202C40.5643 18.8381 38.1577 30.3088 37.8045 31.5644C37.4513 32.82 35.2932 40.903 35.2932 40.903C35.2932 40.903 35.921 41.7663 36.6274 42.0802C30.8201 42.2763 22.2662 35.0173 22.2662 35.0173C22.2662 35.0173 22.7024 35.79 23.4833 36.8981C26.912 40.049 30.6648 43.4643 31.4176 44.0163C31.552 44.0719 31.6878 44.1239 31.8241 44.1733C33.5528 44.4913 40.6165 44.1337 40.6165 44.1337L38.7855 39.3204C38.7855 39.3204 41.1397 30.7404 41.2966 29.9033C41.4536 29.0662 43.2848 16.6146 43.2848 16.6146L47.1039 10.9643L46.6332 9.86572Z" fill="#D5412B"/>
<path id="Fill 8" fill-rule="evenodd" clip-rule="evenodd" d="M17.1479 29.9336L17.4273 30.0702C19.9973 31.3265 22.4039 33.9778 24.7315 36.5418C26.8427 38.8675 29.0257 41.2724 31.0947 42.3188C33.8024 43.6881 37.5159 43.5986 39.8001 43.3647C39.2456 42.7124 38.5674 41.8123 37.7584 40.5718L37.6273 40.3707L37.5975 40.1325C37.4579 39.016 37.8477 37.9036 38.4935 36.0608C39.0274 34.5371 39.7588 32.4505 40.497 29.4484C42.0258 23.2312 42.5566 15.4235 42.5618 15.3453L42.5736 15.1703L42.6419 15.0088C42.7314 14.7971 43.2524 13.7419 45.6446 11.0236C41.3934 11.6043 35.225 13.6483 28.4636 16.7582C21.272 20.0661 15.0417 23.8883 13.6051 25.8705C12.9129 27.0615 12.6571 29.5075 12.5823 31.4327C13.582 30.8208 14.9932 30.2068 16.8395 29.9726L17.1479 29.9336ZM37.2267 45.5865C34.9704 45.5865 32.3382 45.2793 30.1556 44.1755C27.7434 42.9555 25.4292 40.4059 23.191 37.9404C21.0865 35.6222 18.9133 33.2283 16.7892 32.0814C13.7938 32.558 12.395 34.2065 12.335 34.2788L10.5827 36.4559L10.4896 33.6572C10.4671 33.0153 10.3136 27.3118 11.8404 24.767L11.8826 24.7022C13.7656 22.0346 21.1305 17.8408 27.5941 14.8679C31.6128 13.0196 38.6621 9.375 45 9.375C45.1006 9.375 45.1992 9.37606 45.2979 9.37831L46.875 9.375L47.5 11.875C44.4232 15.1541 44.8706 15.2793 44.6223 15.7058C44.5237 17.0622 43.9624 24.0692 42.5175 29.9453C41.7555 33.0445 41.0051 35.1854 40.4572 36.7488C39.9861 38.0929 39.6582 39.0288 39.651 39.6632C41.3987 42.3026 42.3463 43.0183 42.5203 43.1362L46.413 44.2941L42.2986 45.102C42.1361 45.1364 39.9567 45.5865 37.2267 45.5865Z" fill="#6231AD"/>
<path id="Fill 9" fill-rule="evenodd" clip-rule="evenodd" d="M33.8694 39.7292C33.6443 39.6509 33.4378 39.5644 33.2514 39.4702C31.7517 38.7117 29.5886 36.3287 27.6801 34.2264C24.9107 31.1758 22.0476 28.0216 18.5474 26.2952C20.9043 24.6946 24.8458 22.3873 30.4573 19.8182C33.4603 18.4434 36.3669 17.2663 39.0209 16.3354C38.7473 19.1824 38.1567 24.2413 37.1087 28.5039C36.3651 31.5271 35.6495 33.5692 35.0746 35.21C34.4974 36.8572 34.0062 38.2587 33.8694 39.7292Z" fill="#131812"/>
<path id="Fill 10" fill-rule="evenodd" clip-rule="evenodd" d="M32.5247 36.3449C31.4516 35.333 30.2087 33.9639 29.1994 32.852C27.0867 30.5247 24.9226 28.1408 22.4146 26.2839C24.4665 25.0683 27.3983 23.4782 31.3108 21.687C33.1204 20.8585 34.8953 20.1016 36.6165 19.4238C36.2934 22.0189 35.8058 25.2118 35.1159 28.0175C34.3962 30.9447 33.6988 32.935 33.1381 34.5342C32.9235 35.1467 32.7133 35.7468 32.5247 36.3449Z" fill="#D5412B"/>
<path id="Fill 11" fill-rule="evenodd" clip-rule="evenodd" d="M39.648 18.735L40.6485 17.7344C40.6485 17.7344 40.1384 22.6195 39.3732 23.9732C39.491 20.795 39.648 18.735 39.648 18.735Z" fill="#131812"/>
<path id="Fill 12" fill-rule="evenodd" clip-rule="evenodd" d="M39.0008 24.7615L39.8247 24.6045L38.8831 26.3898L39.0008 24.7615Z" fill="#131812"/>
<path id="Fill 13" fill-rule="evenodd" clip-rule="evenodd" d="M30.8203 39.8828C30.8203 39.8828 34.0771 41.6879 35.1756 41.9625C31.9582 41.9037 31.7228 41.6682 31.7228 41.6682L30.8203 39.8828Z" fill="#131812"/>
<path id="Fill 14" fill-rule="evenodd" clip-rule="evenodd" d="M29.8587 39.2151L30.5257 40.8827L29.6036 40.5296L28.8385 38.9404L29.8587 39.2151Z" fill="#131812"/>
<path id="Fill 15" fill-rule="evenodd" clip-rule="evenodd" d="M30.8293 25.2483C29.8061 26.3276 27.3592 26.7898 24.6596 27.1164C23.6455 27.2385 22.938 27.264 22.4414 27.2422C22.4512 27.2368 22.4621 27.2313 22.473 27.2259C22.8485 27.0287 23.5587 26.656 24.9382 25.9458C24.9527 25.9377 24.9681 25.9305 24.9835 25.9223C25.1798 25.9223 26.8182 26.4325 26.8182 26.4325C26.8182 26.4325 26.8263 26.4154 26.8334 26.3675C26.858 26.2335 26.8814 25.8608 26.7295 24.9715C26.753 24.9797 26.7829 24.9915 26.8199 25.0077C27.294 25.2203 28.7994 26.0996 28.7994 26.0996C28.7994 26.0996 28.9423 25.9811 29.0663 25.6501C29.1901 25.3207 29.2941 24.7824 29.2209 23.9411C29.2851 23.9339 29.3593 23.9339 29.4408 23.9402C29.8279 23.9673 30.3726 24.1293 30.7697 24.2631C30.8519 24.5907 30.8609 24.9272 30.8293 25.2483Z" fill="#FFFFFE"/>
<path id="Fill 16" fill-rule="evenodd" clip-rule="evenodd" d="M23.8158 17.0007C23.1095 15.9511 23.0506 15.4803 23.0506 15.4803C23.0506 15.4803 22.2923 16.66 21.9519 17.3796C22.0158 17.6693 22.1453 17.9962 22.3966 18.3055C22.3705 18.0699 22.4097 17.7038 22.8806 17.1021C22.7106 17.5991 23.1683 20.1496 24.097 19.8095C25.0255 19.4695 25.346 18.3643 26.7783 16.0885C28.2104 13.8127 29.6917 14.5582 31.4573 15.1272C31.4573 14.8923 31.321 14.545 31.1966 14.2764C29.6524 13.4036 27.3442 12.9737 25.189 15.4214C24.9145 14.9702 24.9537 14.5386 24.9537 14.5386C24.9537 14.5386 23.8452 16.8635 23.8158 17.0007Z" fill="#339244"/>
<path id="Fill 17" fill-rule="evenodd" clip-rule="evenodd" d="M29.217 34.8195C28.98 35.3353 28.5729 35.925 27.8917 36.2471C27.8192 36.1585 27.7415 36.058 27.6611 35.9458C27.2295 35.3433 26.7437 34.4298 26.8568 33.4689C26.977 32.4502 27.4557 31.7093 27.8112 31.2868C28.0356 31.0183 28.211 30.8789 28.211 30.8789C28.211 30.8789 28.9935 33.3595 29.217 34.8195Z" fill="#F2AF2A"/>
<path id="Fill 18" fill-rule="evenodd" clip-rule="evenodd" d="M27.6812 29.9805C24.7188 31.9817 24.4048 33.9633 24.7384 34.8265C24.9707 35.4281 25.7274 36.2004 26.6362 36.3948C24.2936 32.6283 27.6812 29.9805 27.6812 29.9805Z" fill="#8A2D25"/>
<path id="Fill 19" fill-rule="evenodd" clip-rule="evenodd" d="M30.3908 23.4751C30.1886 23.2098 29.9073 22.9683 29.5245 22.7688C27.804 21.872 24.4577 24.4965 22.1814 26.5213L24.3647 25.4599L24.2568 25.1362L26.2775 25.5972C26.2775 25.5972 26.0814 24.1242 26.1795 23.9436C27.8472 24.8222 28.4454 25.0773 28.4454 25.0773L28.5435 23.8119L27.7883 23.4979C28.5816 23.1934 29.7837 23.3593 30.3908 23.4751Z" fill="#FFFFFE"/>
<path id="Fill 20" fill-rule="evenodd" clip-rule="evenodd" d="M20.2243 18.5438C20.5229 18.6952 21.0329 18.9264 21.5374 19.0282C21.1704 18.1988 21.1709 17.0762 21.2066 16.4619C21.0098 15.8989 21.0097 15.5765 21.0097 15.5765C21.0097 15.5765 20.7939 16.7143 20.7939 16.9302C19.7541 15.8708 19.5841 14.7852 19.5841 14.7852C19.5841 14.7852 19.1525 15.1907 18.9302 16.2763C18.7078 17.3618 19.0609 17.5188 19.7802 18.1596C19.9406 18.3025 20.0892 18.4302 20.2243 18.5438Z" fill="#339244"/>
<path id="Fill 21" fill-rule="evenodd" clip-rule="evenodd" d="M20.578 20.4833C21.1863 19.9438 21.1372 19.8556 21.1372 19.8556L20.1586 18.8435L19.7766 18.7012C19.7098 18.9891 19.6495 19.7483 20.578 20.4833Z" fill="#FFFFFE"/>
<path id="Fill 22" fill-rule="evenodd" clip-rule="evenodd" d="M27.9161 19.0792C27.5869 19.4491 27.168 19.6337 26.7582 19.7169C26.3058 19.8083 25.8644 19.7748 25.5695 19.7296C25.9549 18.8204 26.6785 17.3838 27.5009 16.3806C27.9017 15.8911 28.3251 15.5049 28.7448 15.332C28.7575 15.987 28.734 18.1627 27.9161 19.0792Z" fill="#FFFFFE"/>
<path id="Fill 23" fill-rule="evenodd" clip-rule="evenodd" d="M35.9605 14.0176C35.1659 13.9294 33.9692 14.9495 33.7436 14.5179C33.5179 14.0863 33.9201 13.3257 33.9201 13.3257C35.3915 13.0261 36.7552 14.1059 35.9605 14.0176ZM34.5087 17.8336C34.4792 18.275 33.253 17.1959 33.1158 16.9997C32.9784 16.8036 33.6369 16.8428 33.813 16.9311C33.9888 17.0193 33.724 16.372 34.0771 16.2739C34.0771 16.2739 34.538 17.3921 34.5087 17.8336ZM36.1697 24.1248C36.2875 24.9749 34.8227 27.0153 35.0318 26.0606C35.2411 25.1057 34.8357 22.8283 34.8357 22.8283C34.9665 22.5519 36.0521 23.2746 36.1697 24.1248ZM22.4674 21.929C21.9329 21.8358 21.8447 21.2914 22.4674 21.1933C23.0904 21.0952 23.4386 21.5121 23.4386 21.5121C23.669 21.7427 23.0022 22.0223 22.4674 21.929ZM33.0569 12.4056C33.0569 12.4056 34.2994 10.7053 35.8951 10.7837C34.7909 10.0739 32.9066 9.89169 32.0457 9.84508C31.3428 10.3783 30.7017 11.0284 30.284 11.8039C30.3102 11.0977 31.6312 9.04417 32.6906 8.40332C30.1663 8.42947 23.4436 9.75044 21.9917 15.8717C23.0904 13.9882 23.7051 13.5566 23.7051 13.5566C23.7051 13.5566 23.7706 14.9037 23.8753 15.2961C24.8169 13.2165 26.2032 12.3925 26.2032 12.3925C26.2032 12.3925 25.8632 13.5173 25.7979 13.805C27.059 12.5179 31.1633 11.335 32.7536 15.484C32.8637 15.7175 32.9247 15.9489 32.8738 16.1333C32.7161 16.0597 31.131 15.2771 29.7882 15.1964C29.9758 16.6848 29.0938 19.1023 29.0938 19.1023C29.0938 19.1023 29.761 18.8668 30.4671 18.2391C30.3757 18.736 29.4731 20.5149 26.8703 20.8157C25.647 20.9571 25.0305 20.847 24.7219 20.6853C24.0615 20.8685 23.1501 20.4885 22.3344 19.9421C22.0195 20.0189 21.6582 20.2205 21.3051 20.6685C20.3535 21.8751 17.2047 24.7003 14.203 25.328C15.7921 25.5438 16.7338 25.5242 17.6755 25.4457C16.5964 26.466 14.3402 26.3221 12.3261 26.0213C10.3118 25.7204 9.69708 26.3221 9.60564 27.0675C9.51395 27.8131 10.1156 28.5586 11.4629 27.6561C12.81 26.7537 14.2488 27.5124 15.3342 27.8785C16.4199 28.2448 18.3295 28.1532 19.8598 27.0153C21.3901 25.8774 23.4043 23.3661 25.8239 22.1235C28.2436 20.881 30.1271 21.4043 30.598 22.3721C30.4934 20.9464 30.3364 20.5802 30.3364 20.5802C30.3364 20.5802 31.7882 21.1687 32.0368 23.5754C32.3637 22.5684 31.9713 20.2009 31.6443 19.6777C33.0046 20.4886 34.7573 24.2794 32.5599 29.0153C32.6122 27.4469 32.2459 26.4267 32.2459 26.4267C32.2459 26.4267 31.7751 28.6502 30.598 29.3565C30.614 28.3658 30.4836 27.7271 30.3797 27.3795C29.95 27.3267 29.305 27.3361 28.388 27.5498C28.9616 27.8965 29.7451 28.6458 29.9964 30.2131C29.5623 29.8205 29.1013 29.4207 28.5708 29.0662C29.0041 29.9565 29.5653 31.5133 29.9359 32.669C30.3421 32.1163 31.2666 30.9654 32.4945 30.102C33.7275 29.2351 34.4209 29.2338 34.8317 29.3403C36.9155 26.724 37.8058 23.2427 37.9421 19.9916C38.0391 17.6766 37.4509 16.4793 37.0971 15.9753C36.2759 15.9847 35.9605 16.1463 35.9605 16.1463C35.9605 16.1463 37.0199 19.1676 35.8036 21.7967C34.0771 19.0107 30.8857 17.1142 30.8857 17.1142C30.8857 17.1142 34.6526 18.1082 35.4242 19.8477C35.6074 18.4875 35.1103 15.6101 34.875 15.1784C36.6799 14.5506 39.3089 15.2177 39.3089 15.2177C39.3089 15.2177 36.4705 12.7588 35.5288 12.4056C33.5302 12.1966 33.0569 12.4056 33.0569 12.4056Z" fill="#339244"/>
<path id="Fill 24" fill-rule="evenodd" clip-rule="evenodd" d="M35.4193 30.5132L35.4184 30.5142C35.2655 30.6064 35.1127 30.7131 34.9533 30.8217C34.3771 31.2143 32.1933 33.0191 32.2848 34.2748C32.376 35.5304 33.6454 36.616 33.6454 36.616C33.6454 36.616 33.4344 36.702 33.1441 36.7563C32.7451 36.8314 32.196 36.8468 31.8405 36.4984C31.2252 35.8968 30.6237 34.7724 30.7549 33.9347C30.8851 33.0978 31.7619 31.8946 33.0563 30.8741C34.3508 29.8538 35.3713 30.4816 35.3713 30.4816L35.4193 30.5132Z" fill="#D5412B"/>
<path id="Fill 25" fill-rule="evenodd" clip-rule="evenodd" d="M37.4112 33.9048C37.3306 34.2802 37.1434 34.651 36.7851 35.0211C35.9736 35.8588 34.8356 36.2904 34.2866 36.1068C34.0974 36.0443 33.8631 35.8299 33.6695 35.5196C33.3574 35.0211 33.2623 34.4375 33.3646 33.8876C33.4496 33.4271 33.6713 32.9892 34.0178 32.64C34.4539 32.2013 35.1621 31.5653 35.7909 31.359C36.7851 31.0325 37.1379 31.5418 37.3342 32.4447C37.4437 32.9477 37.5125 33.4307 37.4112 33.9048Z" fill="#F2AF2A"/>
<path id="Fill 26" fill-rule="evenodd" clip-rule="evenodd" d="M37.7095 31.5361C37.5512 31.1716 37.363 30.8468 37.1405 30.6133C36.9975 30.4623 36.8392 30.3483 36.6665 30.2868C36.5497 30.2451 36.4375 30.2234 36.329 30.218C36.3227 30.2072 36.3145 30.1972 36.3073 30.1873C36.3399 30.0226 36.5353 28.9642 36.2738 28.5028C36.4991 27.7873 36.8275 27.6135 37.0953 27.6787C37.2092 27.7347 37.3385 27.8234 37.468 27.9672C37.6417 28.1599 37.8145 28.4494 37.9511 28.8855C38.2976 29.9963 37.885 31.1326 37.7095 31.5361Z" fill="#D5412B"/>
<path id="Fill 27" fill-rule="evenodd" clip-rule="evenodd" d="M34.8741 15.1816C35.1094 15.6132 35.6065 18.4906 35.4233 19.8509C34.6516 18.1113 30.8847 17.1174 30.8847 17.1174C30.8847 17.1174 34.0762 19.0139 35.8027 21.7998C37.019 19.1707 35.9596 16.1494 35.9596 16.1494C35.9596 16.1494 36.275 15.9878 37.0961 15.9784C37.45 16.4824 38.0382 17.6798 37.9412 19.9947C37.8049 23.2458 36.9145 26.7271 34.8307 29.3434C34.42 29.2369 33.7266 29.2382 32.4936 30.1052C31.2657 30.9685 30.3411 32.1194 29.935 32.6721C29.5644 31.5164 29.0031 29.9596 28.5699 29.0693C29.1004 29.4238 29.5614 29.8236 29.9955 30.2162C29.7442 28.649 28.9607 27.8996 28.3871 27.5529C29.3041 27.3392 29.9491 27.3299 30.3788 27.3826C30.4826 27.7302 30.6131 28.3689 30.597 29.3596C31.7741 28.6533 32.245 26.4298 32.245 26.4298C32.245 26.4298 32.6113 27.4501 32.559 29.0184C34.7563 24.2825 33.0037 20.4917 31.6434 19.6809C31.9704 20.204 32.3628 22.5715 32.0358 23.5785C31.7873 21.1718 30.3355 20.5833 30.3355 20.5833C30.3355 20.5833 30.4925 20.9495 30.597 22.3752C30.1262 21.4074 28.2427 20.8841 25.823 22.1267C23.4034 23.3692 21.3891 25.8805 19.8589 27.0184C18.3286 28.1563 16.419 28.2479 15.3333 27.8816C14.2479 27.5155 12.8091 26.7568 11.462 27.6592C10.1147 28.5618 9.51303 27.8162 9.60471 27.0707C9.69616 26.3252 10.3109 25.7236 12.3252 26.0244C14.3393 26.3252 16.5955 26.4691 17.6745 25.4489C16.7328 25.5273 15.7911 25.5469 14.2021 25.3311C17.2038 24.7034 20.3526 21.8782 21.3042 20.6717C21.6573 20.2236 22.0186 20.0221 22.3334 19.9453C23.1491 20.4916 24.0605 20.8716 24.721 20.6885C25.0296 20.8502 25.646 20.9602 26.8694 20.8188C29.4722 20.518 30.3747 18.7392 30.4662 18.2422C29.76 18.8699 29.0929 19.1054 29.0929 19.1054C29.0929 19.1054 29.9749 16.6879 29.7872 15.1995C31.1301 15.2802 32.7151 16.0628 32.8728 16.1364C32.9238 15.9521 32.8628 15.7207 32.7526 15.4871C31.1624 11.3381 27.0581 12.521 25.797 13.8082C25.8623 13.5205 26.2023 12.3956 26.2023 12.3956C26.2023 12.3956 24.816 13.2196 23.8743 15.2993C23.7696 14.9069 23.7042 13.5597 23.7042 13.5597C23.7042 13.5597 23.0895 13.9913 21.9908 15.8748C23.4426 9.75357 30.1653 8.43259 32.6897 8.40645C31.6303 9.0473 30.3093 11.1008 30.2831 11.8071C30.7008 11.0315 31.3419 10.3814 32.0448 9.84821C32.9057 9.89482 34.7899 10.077 35.8942 10.7868C34.2985 10.7084 33.056 12.4088 33.056 12.4088C33.056 12.4088 33.5293 12.1997 35.5279 12.4088C36.4696 12.7619 39.3079 15.2208 39.3079 15.2208C39.3079 15.2208 36.679 14.5537 34.8741 15.1816ZM37.951 28.8921C38.2977 30.0032 37.885 31.1389 37.7092 31.5429C37.4493 30.9417 37.1071 30.4519 36.666 30.2934C36.5491 30.2514 36.4374 30.2297 36.3289 30.2242L36.3074 30.194C36.3399 30.0296 36.5355 28.9703 36.2735 28.5095C36.4989 27.7936 36.8271 27.6201 37.0952 27.6854C37.3623 27.815 37.7131 28.13 37.951 28.8921ZM36.7836 35.023C35.9726 35.86 34.8348 36.2917 34.2855 36.1086C34.0966 36.0456 33.8618 35.8313 33.6679 35.5212C33.095 34.6059 33.256 33.4084 34.0167 32.642C34.453 32.2026 35.1613 31.5674 35.7895 31.3607C36.7836 31.0337 37.1367 31.5438 37.3329 32.4464C37.5291 33.3489 37.5944 34.1859 36.7836 35.023ZM31.8396 36.501C31.2247 35.8993 30.6232 34.7745 30.754 33.9374C30.8847 33.1004 31.7611 31.897 33.056 30.8768C34.3508 29.8566 35.371 30.4844 35.371 30.4844L35.4187 30.5157C35.2662 30.6089 35.1124 30.7155 34.9525 30.8246C34.3769 31.2169 32.1927 33.0218 32.2844 34.2775C32.3758 35.5331 33.6446 36.6187 33.6446 36.6187C33.6446 36.6187 32.4543 37.1026 31.8396 36.501ZM27.891 36.2518C27.4286 35.6842 26.7225 34.6109 26.8564 33.473C27.0525 31.8055 28.21 30.8834 28.21 30.8834C28.21 30.8834 28.9926 33.3639 29.2163 34.8237C28.9791 35.3391 28.5724 35.9293 27.891 36.2518ZM24.7376 34.8269C24.404 33.9636 24.718 31.982 27.6804 29.9808C27.6804 29.9808 24.2928 32.6287 26.6354 36.3951C25.7266 36.2007 24.9698 35.4284 24.7376 34.8269ZM24.6589 27.1231C23.6451 27.2455 22.9369 27.2708 22.4407 27.2494C22.8114 27.0547 23.5344 26.6753 24.9827 25.9295C25.1789 25.9295 26.8171 26.4396 26.8171 26.4396C26.8171 26.4396 26.9348 26.1846 26.7289 24.978C27.0525 25.0859 28.7987 26.106 28.7987 26.106C28.7987 26.106 29.3675 25.6353 29.2205 23.9481C29.5937 23.9058 30.2883 24.1075 30.7693 24.2697C30.8509 24.5974 30.8606 24.934 30.8289 25.255C29.8053 26.3346 27.3587 26.7968 24.6589 27.1231ZM28.5435 23.8107L28.4454 25.0761C28.4454 25.0761 27.8472 24.821 26.1795 23.9424C26.0814 24.123 26.2775 25.596 26.2775 25.596L24.2568 25.135L24.3647 25.4587L22.1814 26.5201C24.4577 24.4953 27.804 21.8708 29.5245 22.7676C29.9073 22.9671 30.1886 23.2085 30.3908 23.4739C29.7837 23.3581 28.5816 23.1922 27.7883 23.4967L28.5435 23.8107ZM19.7738 18.7915L20.1205 19.0269L21.1374 19.8575C21.1374 19.8575 21.1865 19.9457 20.5782 20.4852C19.6497 19.7502 19.707 19.0795 19.7738 18.7915ZM18.9303 16.2802C19.1526 15.1947 19.5842 14.7891 19.5842 14.7891C19.5842 14.7891 19.7542 15.8748 20.7941 16.9342C20.7941 16.7183 21.0099 15.5805 21.0099 15.5805C21.0099 15.5805 21.01 15.9029 21.2067 16.4659C21.171 17.0802 21.1705 18.2028 21.5375 19.0322C21.033 18.9303 20.523 18.6992 20.2244 18.5478C20.0893 18.4342 19.9408 18.3065 19.7803 18.1636C19.061 17.5228 18.7079 17.3658 18.9303 16.2802ZM27.9158 19.0793C27.2216 19.858 26.1304 19.8156 25.5688 19.7295C26.1427 18.3774 27.4632 15.8603 28.7444 15.332C28.7568 15.9866 28.7332 18.1624 27.9158 19.0793ZM25.1887 15.4235C27.3438 12.9758 29.652 13.4057 31.1962 14.2785C31.3207 14.5471 31.457 14.8944 31.457 15.1293C29.6913 14.5603 28.21 13.8148 26.778 16.0906C25.3457 18.3664 25.0252 19.4716 24.0966 19.8116C23.1679 20.1517 22.7102 17.6012 22.8802 17.1042C22.4094 17.7059 22.3701 18.0721 22.3963 18.3076C22.145 17.9984 22.0154 17.6714 21.9516 17.3818C22.2919 16.6621 23.0502 15.4824 23.0502 15.4824C23.0502 15.4824 23.1091 15.9532 23.8154 17.0028C23.8449 16.8656 24.9534 14.5407 24.9534 14.5407C24.9534 14.5407 24.9141 14.9723 25.1887 15.4235ZM36.5554 11.4703C37.2845 11.4276 38.0413 11.4984 38.7324 11.7809C37.386 9.83141 34.6267 9.1714 33.4203 8.97004C34.7611 8.24461 35.9596 7.90946 35.9596 7.90946C25.4699 5.5551 21.1406 14.1222 21.1406 14.1222C21.1406 14.1222 20.9707 13.9652 20.8006 13.3112C20.4343 13.5205 20.1989 14.5014 20.1989 14.5014C20.1989 14.5014 20.055 14.0306 19.6626 13.1673C19.1526 13.5073 17.9624 16.0578 18.0801 17.0388C18.1732 17.8152 18.6258 18.1973 18.8111 18.3233C18.7891 18.5279 18.7826 18.8316 18.8386 19.2493C18.9563 20.1256 19.7542 21.1981 19.7542 21.1981C19.7542 21.1981 19.6235 21.342 18.5771 21.9435C17.5308 22.5452 15.438 24.0363 12.7568 24.9126C9.69616 23.7093 8.8329 25.632 8.75447 27.1231C8.67603 28.6141 9.64387 29.3727 10.5724 29.2157C11.5011 29.0588 12.1812 27.8162 14.0647 28.7842C15.9481 29.752 18.8256 29.5427 20.055 28.4702C20.109 28.4232 20.172 28.3665 20.2427 28.302C21.337 28.3739 23.7817 28.2377 25.8204 27.9932C26.076 28.0326 26.3181 28.0843 26.549 28.1457C26.8679 28.3227 27.1832 28.5851 27.3566 28.9705C25.2966 30.0888 23.8351 32.0605 23.5604 33.3946C23.2857 34.7287 23.737 35.9059 24.8748 36.6906C25.9995 37.4662 28.4646 38.3931 29.829 36.5019C30.4398 37.1119 31.829 37.9212 32.3889 37.9004C33.0952 37.8744 36.025 36.5271 37.0844 35.6639C37.8924 35.0056 38.1675 34.0126 38.1308 33.1548C38.4013 32.6862 39.0349 31.4635 39.0888 30.2162C39.1511 28.7752 38.3906 27.7617 37.5679 27.1611C37.4285 26.9022 37.3429 26.493 37.5586 25.8904C37.976 24.7237 39.9063 21.1814 38.2776 16.053C39.0771 16.1526 40.1176 16.3654 41.4529 16.7772C40.2615 13.62 37.7138 12.0457 36.5554 11.4703Z" fill="#131812"/>
<path id="Fill 28" fill-rule="evenodd" clip-rule="evenodd" d="M33.9196 13.3242C33.9196 13.3242 33.5174 14.0847 33.7431 14.5164C33.9687 14.948 35.1653 13.9279 35.96 14.0161C36.7546 14.1044 35.3909 13.0246 33.9196 13.3242Z" fill="#131812"/>
<path id="Fill 29" fill-rule="evenodd" clip-rule="evenodd" d="M35.0307 26.0607C34.8216 27.0154 36.2864 24.975 36.1686 24.1249C36.051 23.2748 34.9654 22.5521 34.8346 22.8284C34.8346 22.8284 35.24 25.1059 35.0307 26.0607Z" fill="#131812"/>
<path id="Fill 30" fill-rule="evenodd" clip-rule="evenodd" d="M22.4665 21.1966C21.8437 21.2947 21.932 21.8391 22.4665 21.9323C23.0012 22.0255 23.6681 21.746 23.4376 21.5154C23.4376 21.5154 23.0894 21.0985 22.4665 21.1966Z" fill="#131812"/>
<path id="Fill 31" fill-rule="evenodd" clip-rule="evenodd" d="M33.8122 16.9316C33.6361 16.8433 32.9777 16.8041 33.115 17.0002C33.2522 17.1964 34.4785 18.2755 34.5079 17.8341C34.5373 17.3926 34.0763 16.2744 34.0763 16.2744C33.7232 16.3725 33.988 17.0198 33.8122 16.9316Z" fill="#131812"/>
<path id="Fill 32" fill-rule="evenodd" clip-rule="evenodd" d="M36.0187 23.2474C36.0187 23.2474 36.8034 22.6194 37.0192 20.0101C37.189 17.9582 36.7036 16.5315 36.4885 16.0155C36.1148 16.0663 35.9598 16.1452 35.9598 16.1452C35.9598 16.1452 37.0192 19.1665 35.8029 21.7956C34.1988 19.2073 31.3324 17.3878 30.9332 17.1425C30.8064 17.0933 30.7314 17.0673 30.7314 17.0673C30.7314 17.0673 31.4474 16.6749 32.8993 17.4596C32.2125 16.3611 30.5057 16.106 30.5057 16.106C30.5057 16.106 31.6633 15.9392 33.0463 16.5474C33.0138 16.353 32.9597 16.1639 32.8909 15.9806C32.8916 16.0337 32.8862 16.0846 32.873 16.1322C32.7153 16.0586 31.1303 15.276 29.7874 15.1953C29.9751 16.6837 29.0931 19.1012 29.0931 19.1012C29.0931 19.1012 29.7602 18.8657 30.4664 18.238C30.3862 18.6738 29.6819 20.0952 27.7545 20.6413C27.998 20.8465 28.3401 21.1343 28.6555 21.3968C29.6381 21.4338 30.3358 21.8334 30.5972 22.371C30.4926 20.9453 30.3357 20.5791 30.3357 20.5791C30.3357 20.5791 31.7875 21.1676 32.036 23.5743C32.363 22.5673 31.9706 20.1998 31.6436 19.6766C33.0039 20.4875 34.7565 24.2783 32.5592 29.0142C32.6115 27.4458 32.2452 26.4256 32.2452 26.4256C32.2452 26.4256 31.7743 28.6491 30.5972 29.3554C30.6133 28.3647 30.4828 27.726 30.379 27.3784C29.9493 27.3257 29.3043 27.335 28.3873 27.5487C28.9609 27.8954 29.7444 28.6447 29.9957 30.212C29.5616 29.8194 29.1006 29.4196 28.5701 29.0651C29.0033 29.9554 29.5646 31.5122 29.9352 32.6679C30.2567 32.2303 30.9043 31.418 31.7689 30.67C31.3755 30.7364 30.8648 30.8499 30.2899 31.0165C31.1923 30.4083 32.1537 28.3286 32.1537 28.3286C32.1537 28.3286 32.1733 28.5053 32.2322 30.0551C32.9974 29.1722 34.351 26.1705 34.0371 23.6593C33.7233 21.1481 32.703 19.8924 31.3493 18.6957C33.8606 19.5982 36.0187 23.2474 36.0187 23.2474Z" fill="#234C2A"/>
<path id="Fill 33" fill-rule="evenodd" clip-rule="evenodd" d="M22.4674 21.1926C23.0904 21.0945 23.4386 21.5114 23.4386 21.5114C23.6691 21.742 23.0022 22.0215 22.4674 21.9283C21.933 21.8351 21.8447 21.2907 22.4674 21.1926ZM19.8598 27.0145C21.3901 25.8767 23.4043 23.3653 25.8239 22.1228C28.2436 20.8803 30.1271 21.4035 30.598 22.3714C30.4934 20.9457 30.3364 20.5794 30.3364 20.5794C30.3364 20.5794 31.7882 21.168 32.0368 23.5746C32.1069 23.3585 32.1437 23.0794 32.1554 22.7697C32.1014 22.5611 32.0365 22.3472 31.9582 22.1293C31.2814 20.246 29.7315 20.1871 29.7315 20.1871C29.7315 20.1871 29.9178 20.2852 30.271 21.325C29.9944 20.842 29.1976 20.5702 28.332 20.4389C27.9185 20.6149 27.4345 20.7497 26.8703 20.815C25.647 20.9563 25.0305 20.8463 24.7219 20.6846C24.0615 20.8677 23.1501 20.4877 22.3344 19.9414C22.0195 20.0182 21.6582 20.2198 21.3051 20.6678C20.3535 21.8744 17.2047 24.6996 14.203 25.3273C15.7921 25.5431 16.7338 25.5234 17.6755 25.445C16.5964 26.4652 14.3402 26.3214 12.3261 26.0205C10.3118 25.7197 9.69708 26.3214 9.60564 27.0668C9.51395 27.8124 10.1156 28.5579 11.4629 27.6554C12.81 26.753 14.2488 27.5116 15.3342 27.8778C16.4199 28.244 18.3296 28.1525 19.8598 27.0145Z" fill="#F2AF2A"/>
<path id="Fill 34" fill-rule="evenodd" clip-rule="evenodd" d="M22.2468 16.814C22.1355 17.0132 22.032 17.2084 21.9519 17.3779C22.0158 17.6675 22.1453 17.9945 22.3966 18.3038C22.3795 18.1494 22.3914 17.9384 22.5335 17.6423C22.3992 17.4398 22.3005 17.0611 22.2468 16.814Z" fill="#234C2A"/>
<path id="Fill 35" fill-rule="evenodd" clip-rule="evenodd" d="M31.458 15.1284C31.458 14.8936 31.3217 14.5463 31.1972 14.2777C30.3043 13.773 29.1558 13.4178 27.9295 13.6799C27.0377 14.0032 26.2842 14.6275 26.0596 15.5469C26.0596 15.5469 27.0797 14.2522 28.7277 14.3306C27.786 14.3306 26.7527 15.22 26.0203 16.4887C25.2877 17.7574 24.4769 19.2746 23.8491 18.686C23.2212 18.0975 23.0251 16.7895 23.0251 16.7895C23.0251 16.7895 22.8944 16.8753 22.7509 17.2804C22.7904 17.2236 22.833 17.165 22.8812 17.1034C22.7112 17.6004 23.1689 20.1509 24.0976 19.8107C25.0262 19.4707 25.3467 18.3656 26.779 16.0898C28.211 13.814 29.6923 14.5595 31.458 15.1284Z" fill="#234C2A"/>
<path id="Fill 36" fill-rule="evenodd" clip-rule="evenodd" d="M21.2073 16.4664C21.0106 15.9034 21.0105 15.5811 21.0105 15.5811C21.0105 15.5811 20.7947 16.7189 20.7947 16.9348C20.6584 16.7959 20.5375 16.6568 20.4295 16.5196C20.4245 17.1068 20.775 17.9158 20.775 17.9158C20.775 17.9158 19.4541 16.9283 19.3232 16.065C19.0962 16.396 19.1701 17.223 19.2285 17.6702C19.3743 17.8165 19.5603 17.9676 19.7809 18.1642C19.9414 18.3071 20.09 18.4348 20.2251 18.5483C20.5237 18.6998 21.0337 18.9309 21.5381 19.0328C21.1711 18.2034 21.1716 17.0808 21.2073 16.4664Z" fill="#234C2A"/>
<path id="Fill 37" fill-rule="evenodd" clip-rule="evenodd" d="M30.2516 12.3413C31.2827 11.0455 33.3219 10.433 34.4391 10.1935C33.5358 9.95881 32.5881 9.87553 32.046 9.84619C31.3574 10.3685 30.7287 11.0033 30.3106 11.7581C30.2613 11.9471 30.2365 12.1438 30.2516 12.3413Z" fill="#234C2A"/>
<path id="Fill 38" fill-rule="evenodd" clip-rule="evenodd" d="M35.5281 12.4074C33.5295 12.1983 33.0561 12.4074 33.0561 12.4074C33.0561 12.4074 33.0807 12.374 33.1259 12.318C32.782 12.4949 32.5043 12.7094 32.3694 12.9698C34.5669 12.2242 37.1172 14.1861 37.1172 14.1861C37.1172 14.1861 36.3334 14.0507 35.4778 14.0702C34.7492 14.2635 33.926 14.8701 33.7429 14.5197L33.7338 14.498C33.6274 14.5764 33.5369 14.6678 33.4681 14.7747C33.4681 14.7747 34.3265 14.9178 34.9148 15.167C36.7183 14.5628 39.3081 15.2194 39.3081 15.2194C39.3081 15.2194 36.4698 12.7605 35.5281 12.4074Z" fill="#234C2A"/>
<path id="Fill 39" fill-rule="evenodd" clip-rule="evenodd" d="M37.0319 28.9479C37.1233 29.7304 37.1514 30.2959 37.1405 30.6133C36.9975 30.4623 36.8392 30.3483 36.6665 30.2868C36.5497 30.2451 36.4375 30.2234 36.329 30.218C36.3227 30.2072 36.3145 30.1972 36.3073 30.1873C36.3399 30.0226 36.5353 28.9642 36.2738 28.5028C36.4991 27.7873 36.8275 27.6135 37.0953 27.6787C37.2092 27.7347 37.3385 27.8234 37.468 27.9672C37.2147 28.0414 36.9532 28.2757 37.0319 28.9479Z" fill="#8A2D25"/>
<path id="Fill 40" fill-rule="evenodd" clip-rule="evenodd" d="M35.4193 30.5132L35.4184 30.5142C35.0693 30.4961 33.6904 30.5241 32.4683 31.9733C31.1014 33.5918 31.4732 35.6517 33.1441 36.7563C32.7451 36.8314 32.196 36.8468 31.8405 36.4984C31.2252 35.8968 30.6237 34.7724 30.7549 33.9347C30.8851 33.0978 31.7619 31.8946 33.0563 30.8741C34.3508 29.8538 35.3713 30.4816 35.3713 30.4816L35.4193 30.5132Z" fill="#8A2D25"/>
<path id="Fill 41" fill-rule="evenodd" clip-rule="evenodd" d="M37.4112 33.9014C37.3306 34.2768 37.1434 34.6477 36.7851 35.0177C35.9736 35.8554 34.8356 36.287 34.2866 36.1034C34.0974 36.0409 33.8631 35.8266 33.6695 35.5163C33.3574 35.0177 33.2623 34.4342 33.3646 33.8843C33.4822 34.1574 33.7599 34.4551 34.3515 34.7039C35.429 35.1562 36.7182 34.4072 37.4112 33.9014Z" fill="#B48032"/>
<path id="Fill 42" fill-rule="evenodd" clip-rule="evenodd" d="M29.2158 34.8195C28.9789 35.3353 28.5718 35.925 27.8906 36.2471C27.8181 36.1585 27.7404 36.058 27.6599 35.9458C29.0114 34.3067 28.0108 31.7528 27.81 31.2868C28.0345 31.0183 28.2099 30.8789 28.2099 30.8789C28.2099 30.8789 28.9924 33.3595 29.2158 34.8195Z" fill="#B48032"/>
<path id="Fill 43" fill-rule="evenodd" clip-rule="evenodd" d="M36.8478 31.7992C37.075 32.1195 36.901 32.6333 36.4592 32.9468C36.0172 33.2602 35.4746 33.2545 35.2475 32.9342C35.0202 32.6138 35.1943 32.1 35.6361 31.7866C36.0781 31.4732 36.6205 31.4788 36.8478 31.7992Z" fill="#FFFFFE"/>
<path id="Fill 44" fill-rule="evenodd" clip-rule="evenodd" d="M34.8483 32.9147C34.9457 33.0521 34.871 33.2723 34.6815 33.4067C34.4921 33.5411 34.2595 33.5386 34.1621 33.4013C34.0645 33.2639 34.1392 33.0437 34.3287 32.9093C34.5181 32.7749 34.7507 32.7774 34.8483 32.9147Z" fill="#FFFFFE"/>
<path id="Fill 45" fill-rule="evenodd" clip-rule="evenodd" d="M27.5957 32.9691C27.7637 32.9787 27.8893 33.1744 27.8761 33.4062C27.8628 33.6382 27.7158 33.8185 27.5476 33.8089C27.3795 33.7992 27.2539 33.6035 27.2672 33.3716C27.2804 33.1397 27.4275 32.9595 27.5957 32.9691Z" fill="#FFFFFE"/>
<path id="Fill 46" fill-rule="evenodd" clip-rule="evenodd" d="M30.598 22.3698C30.4934 20.9441 30.3364 20.5778 30.3364 20.5778C30.3364 20.5778 31.7882 21.1664 32.0368 23.573C32.1069 23.3569 32.1437 23.0778 32.1554 22.7681C32.1014 22.5595 32.0365 22.3456 31.9582 22.1277C31.2814 20.2445 29.7315 20.1855 29.7315 20.1855C29.7315 20.1855 29.9178 20.2836 30.271 21.3234C29.9944 20.8405 29.1976 20.5686 28.332 20.4373C28.2904 20.455 28.2476 20.472 28.2046 20.4889C28.5221 20.6359 28.9609 20.8644 29.5516 21.2188C28.0344 20.4602 23.7443 22.3175 21.9393 24.4624C20.1345 26.6075 17.44 27.3661 15.6613 26.8952C13.8825 26.4244 12.5223 26.5814 11.1096 27.1568C10.1166 27.5614 10.1968 26.6737 10.3318 26.1103C9.85218 26.3109 9.65449 26.6676 9.60564 27.0652C9.51395 27.8108 10.1156 28.5563 11.4629 27.6538C12.81 26.7514 14.2488 27.5101 15.3342 27.8762C16.4199 28.2425 18.3296 28.1509 19.8598 27.0129C21.3901 25.8751 23.4043 23.3638 25.8239 22.1212C28.2436 20.8787 30.1271 21.4019 30.598 22.3698Z" fill="#D5412B"/>
<path id="Fill 47" fill-rule="evenodd" clip-rule="evenodd" d="M22.6198 20.1232C22.5236 20.0653 22.4279 20.0047 22.3336 19.9414C22.0188 20.0182 21.6575 20.2198 21.3044 20.6678C20.3527 21.8744 17.204 24.6996 14.2023 25.3273C14.5448 25.3738 14.8559 25.4089 15.1448 25.4353C16.0028 25.228 17.2677 24.765 18.4595 23.7316C20.5261 21.9397 21.7556 20.658 22.3441 20.2525C22.4267 20.1956 22.5203 20.1539 22.6198 20.1232Z" fill="#FFFFFE"/>
<path id="Fill 48" fill-rule="evenodd" clip-rule="evenodd" d="M27.9176 19.0792C27.5884 19.4491 27.1694 19.6337 26.7596 19.7169C27.8018 18.5797 27.6462 17.0681 27.5024 16.3806C27.9032 15.8911 28.3266 15.5049 28.7463 15.332C28.759 15.987 28.7354 18.1627 27.9176 19.0792Z" fill="#979894"/>
<path id="Fill 49" fill-rule="evenodd" clip-rule="evenodd" d="M21.9916 15.8717C23.0903 13.9882 23.705 13.5566 23.705 13.5566C23.705 13.5566 23.7079 13.6155 23.7132 13.7115C25.5768 10.4884 30.1492 9.19394 32.2213 8.76048C32.38 8.6178 32.538 8.4956 32.6904 8.40332C30.1661 8.42947 23.4434 9.75044 21.9916 15.8717Z" fill="#FFFFFE"/>
<path id="Fill 50" fill-rule="evenodd" clip-rule="evenodd" d="M35.4235 19.8502C35.5844 18.6549 35.2203 16.2888 34.9698 15.4395L35.1096 18.516L33.7238 18.2631C34.4693 18.6862 35.1436 19.2191 35.4235 19.8502Z" fill="#FFFFFE"/>
<path id="Fill 51" fill-rule="evenodd" clip-rule="evenodd" d="M36.7056 24.5253C36.7056 24.2167 36.4339 23.9754 36.1069 23.877C36.1359 23.9582 36.1577 24.0416 36.1692 24.1263C36.2871 24.9765 34.8222 27.0168 35.0314 26.0621C35.1032 25.7348 35.1026 25.2522 35.071 24.7591C35.0016 25.4664 34.8362 26.6425 34.469 27.3112C36.2739 26.9776 36.7056 25.1727 36.7056 24.5253Z" fill="#234C2A"/>
<path id="Fill 52" fill-rule="evenodd" clip-rule="evenodd" d="M37.9022 30.0268C37.9022 30.314 37.8144 30.5467 37.706 30.5467C37.5977 30.5467 37.5098 30.314 37.5098 30.0268C37.5098 29.7397 37.5977 29.5068 37.706 29.5068C37.8144 29.5068 37.9022 29.7397 37.9022 30.0268Z" fill="#FFFFFE"/>
<path id="Fill 53" fill-rule="evenodd" clip-rule="evenodd" d="M27.1832 23.4689C27.7252 23.5825 27.893 24.3442 27.945 24.8372C28.2976 25.0081 28.4454 25.0711 28.4454 25.0711L28.5435 23.8057L27.7882 23.4917C28.5816 23.1872 29.7836 23.3531 30.3908 23.4689C30.296 23.3446 30.1832 23.2258 30.0514 23.1137C29.2054 22.965 27.9761 22.8902 27.1832 23.4689Z" fill="#979894"/>
<path id="Fill 54" fill-rule="evenodd" clip-rule="evenodd" d="M25.4181 24.282C25.7651 24.5878 25.8144 25.1283 25.8038 25.485L26.2779 25.5933C26.2779 25.5933 26.1467 24.6071 26.1528 24.1497C25.8749 24.0882 25.6154 24.111 25.4181 24.282Z" fill="#979894"/>
<path id="Fill 55" fill-rule="evenodd" clip-rule="evenodd" d="M30.8293 25.2534C29.8061 26.3327 27.3592 26.7949 24.6596 27.1215C23.6455 27.2436 22.938 27.269 22.4414 27.2473C22.4512 27.2418 22.4621 27.2364 22.473 27.2309C23.3036 27.221 24.5021 27.0853 25.3789 26.4801C25.3481 26.2865 25.12 26.0829 24.9382 25.9509C24.9527 25.9427 24.9681 25.9355 24.9835 25.9274C25.1798 25.9274 26.8182 26.4376 26.8182 26.4376C26.8182 26.4376 26.8263 26.4205 26.8334 26.3725C26.9249 26.4205 27.009 26.4701 27.0796 26.5199C27.5292 25.7971 27.1293 25.2761 26.8199 25.0128C27.294 25.2254 28.7994 26.1047 28.7994 26.1047C28.7994 26.1047 28.9423 25.9862 29.0663 25.6551C29.3928 25.2707 29.7348 24.5578 29.7348 24.5578C29.7348 24.5578 29.8135 24.5578 30.2188 24.9892C30.1671 24.2691 29.7329 24.0267 29.4408 23.9453C29.8279 23.9724 30.3726 24.1344 30.7697 24.2682C30.8519 24.5957 30.8609 24.9323 30.8293 25.2534Z" fill="#979894"/>
<path id="Fill 56" fill-rule="evenodd" clip-rule="evenodd" d="M25.1891 15.4193C24.9145 14.9681 24.9538 14.5365 24.9538 14.5365C24.9538 14.5365 23.8453 16.8614 23.8158 16.9987C23.1095 15.9491 23.0506 15.4782 23.0506 15.4782C23.0506 15.4782 22.9699 15.6039 22.8497 15.7974C22.9514 16.5733 23.8484 17.3486 23.8484 17.3486L24.4894 15.7137C24.4894 15.7137 24.4894 15.7137 24.7771 16.7862C25.0438 15.7193 25.9447 14.7739 26.4945 14.2773C26.0582 14.5563 25.6205 14.9293 25.1891 15.4193Z" fill="#FFFFFE"/>
<path id="Fill 57" fill-rule="evenodd" clip-rule="evenodd" d="M20.2238 16.235C19.6873 15.4434 19.5841 14.7852 19.5841 14.7852C19.5841 14.7852 19.1525 15.1907 18.9302 16.2763C18.8461 16.6865 18.8443 16.9641 18.9134 17.1853C18.9916 16.7758 19.0822 15.8355 19.5285 15.3411C19.6886 15.8822 19.9887 16.1312 20.2238 16.235Z" fill="#FFFFFE"/>
<path id="Fill 58" fill-rule="evenodd" clip-rule="evenodd" d="M32.3108 11.752C33.1296 11.2777 34.0016 11.0889 34.7287 11.0271C35.0825 10.8658 35.4762 10.7634 35.8946 10.784C35.4584 10.5037 34.9005 10.3059 34.3319 10.166C33.705 10.3759 32.7893 10.8274 32.3108 11.752Z" fill="#FFFFFE"/>
<path id="Fill 59" fill-rule="evenodd" clip-rule="evenodd" d="M29.7607 9.88244L30.6763 9.59473C30.6763 9.59473 29.669 11.1773 29.6167 11.622C27.3148 11.8574 27.0532 11.9882 27.0532 11.9882C27.0532 11.9882 29.0022 11.1773 29.1329 11.0857C29.5252 10.1047 29.7083 9.86943 29.7083 9.86943L29.7607 9.88244Z" fill="#234C2A"/>
<path id="Fill 60" fill-rule="evenodd" clip-rule="evenodd" d="M33.2926 49.0314C32.502 48.7846 31.9578 48.2118 31.6068 47.504C31.2557 47.9964 30.7117 48.235 29.9209 47.996L29.9154 47.9945C29.0855 47.7354 28.5265 47.1185 28.1774 46.3635C27.8255 46.823 27.2915 47.0383 26.5272 46.8072L13.1079 42.6866V39.8708L13.6967 31.5088L26.5244 35.4479C27.0009 35.5966 27.3877 35.8632 27.6969 36.206V35.82L32.1352 37.183V37.408C32.4424 37.2609 32.8254 37.2358 33.2954 37.3802C33.7737 37.5271 34.1621 37.7942 34.4721 38.1386V37.8884L42.242 40.2743V43.335L41.1905 46.9679V51.31L34.4721 49.2469V48.9929C34.1627 49.1476 33.7753 49.1773 33.298 49.0332L33.2954 49.0322L33.2926 49.0314Z" fill="#131812"/>
<path id="Fill 61" fill-rule="evenodd" clip-rule="evenodd" d="M30.2978 44.8949C30.2978 45.2129 30.1712 45.3329 29.9184 45.2552C29.6627 45.1768 29.535 44.9785 29.535 44.6606V38.0206L28.6607 37.7522V44.2699C28.6607 45.3989 29.0798 46.0941 29.9184 46.3558C30.7539 46.6081 31.1718 46.17 31.1718 45.041V38.5234L30.2978 38.2548V44.8949ZM26.9039 43.7121C26.9039 44.0259 26.7775 44.1439 26.5246 44.0663L26.1411 43.9485V38.0607L26.5246 38.1785C26.7775 38.2562 26.9039 38.454 26.9039 38.7718V43.7121ZM26.5246 37.0841L25.2669 36.698V44.7807L26.5246 45.1668C27.3603 45.4195 27.7781 44.9812 27.7781 43.8521V39.1687C27.7781 38.0397 27.3603 37.3449 26.5246 37.0841ZM37.1551 41.2779L36.4293 43.6166L36.3097 43.5799V40.0889L35.4356 39.8204V47.9032L36.3097 48.1716V44.6745L36.4293 44.7111L37.1551 47.5019V48.4313L38.0292 48.6996V47.6357L37.1798 44.3912L38.0292 41.6868V40.6169L37.1551 40.3485V41.2779ZM40.425 41.3526V42.2756L39.7899 44.6915L39.1509 41.8844V40.9613L38.2973 40.6992V41.7692L39.3529 46.0491V49.1061L40.2271 49.3745V46.3176L41.2786 42.6846V41.6147L40.425 41.3526ZM33.2955 39.0165C32.4598 38.7599 32.0419 39.1982 32.0419 40.3313V45.3081C32.0419 46.4372 32.4598 47.132 33.2955 47.3927C34.1311 47.6453 34.549 47.2071 34.549 46.078V44.6534L33.679 44.3863V45.9331C33.679 46.2511 33.5511 46.3708 33.2955 46.2924C33.0425 46.2146 32.9162 46.0168 32.9162 45.6988V40.4714C32.9162 40.1575 33.0425 40.0393 33.2955 40.1169C33.5511 40.1955 33.679 40.3918 33.679 40.7056V42.2586L34.549 42.5258V41.1012C34.549 39.9681 34.1311 39.2731 33.2955 39.0165ZM18.826 42.8028L20.9001 43.4397V42.3393L19.7002 41.9706V39.8858L20.896 40.253V39.1587L19.7002 38.7914V36.0829L20.9001 36.4513V35.357L18.826 34.7201V42.8028ZM16.6652 34.0566L16.0797 38.6823L15.4983 33.6982L14.5541 33.4082L14.0717 40.2606V41.3429L14.8839 41.5923V40.6324L15.1477 36.1035L15.7622 41.8619L16.4014 42.0583L17.0157 36.677L17.2797 41.3803V42.328L18.0921 42.5774V41.5075L17.6055 34.3453L16.6652 34.0566ZM23.4362 40.7639L22.3228 35.7938L21.6341 35.5824V43.6652L22.4465 43.9146V39.2862L23.5598 44.2565L24.2485 44.4679V36.3851L23.4362 36.1357V40.7639Z" fill="#FFFFFE"/>
<path id="Fill 62" fill-rule="evenodd" clip-rule="evenodd" d="M22.61 39.2884L23.6906 44.1126L24.0774 44.2314V39.6719L23.605 39.5267V40.8127C23.605 40.9039 23.5412 40.9612 23.4562 40.9466L23.4349 40.9414C23.3582 40.9179 23.2898 40.8418 23.2704 40.7548L22.9503 39.3257L22.5781 39.2114C22.5926 39.2352 22.6039 39.2611 22.61 39.2884Z" fill="#F2AF2A"/>
<path id="Fill 63" fill-rule="evenodd" clip-rule="evenodd" d="M25.4358 40.0879V44.6474L26.5226 44.9813C26.9883 45.1219 27.607 45.1521 27.607 43.7954V40.7546L27.0728 40.5906V43.7597C27.0728 44.1738 26.8726 44.3499 26.5235 44.2426L26.1399 44.1249C26.0461 44.096 25.9699 43.9917 25.9699 43.8918V40.252L25.4358 40.0879Z" fill="#F2AF2A"/>
<path id="Fill 64" fill-rule="evenodd" clip-rule="evenodd" d="M14.7137 40.5764L14.7141 40.5657L14.9299 36.8624L14.4939 36.7285L14.2413 40.3158V41.2106L14.7137 41.3555V40.5764Z" fill="#F2AF2A"/>
<path id="Fill 65" fill-rule="evenodd" clip-rule="evenodd" d="M28.8287 41.1353V44.3226C28.8287 45.6788 29.4496 46.0297 29.9169 46.1754C30.3823 46.3159 31.0002 46.3449 31.0002 44.9895V41.802L30.4658 41.6379V44.9477C30.4658 45.5413 30.0816 45.4875 29.9165 45.4368C29.5648 45.3289 29.3631 45.0271 29.3631 44.6091V41.2993L28.8287 41.1353Z" fill="#F2AF2A"/>
<path id="Fill 66" fill-rule="evenodd" clip-rule="evenodd" d="M15.9132 41.7256L16.25 41.8291L16.753 37.424L16.4291 37.3245L16.2481 38.7554C16.237 38.8423 16.1649 38.8875 16.0795 38.8614H16.0794C15.994 38.8351 15.9218 38.7453 15.9109 38.6519L15.7311 37.1103L15.4102 37.0117L15.9132 41.7256Z" fill="#F2AF2A"/>
<path id="Fill 67" fill-rule="evenodd" clip-rule="evenodd" d="M18.9948 38.1104V42.6699L20.729 43.2024V42.4636L19.6989 42.1473C19.6051 42.1185 19.5289 42.0141 19.5289 41.9142V39.8293C19.5289 39.7294 19.6051 39.6718 19.6989 39.7006L20.7248 40.0156V39.2831L19.6989 38.968C19.6051 38.9392 19.5289 38.8348 19.5289 38.7349V38.2743L18.9948 38.1104Z" fill="#F2AF2A"/>
<path id="Fill 68" fill-rule="evenodd" clip-rule="evenodd" d="M17.4486 41.419L17.4489 41.43V42.1968L17.9214 42.3417V41.4594L17.6662 37.7039L17.2327 37.5708L17.4486 41.419Z" fill="#F2AF2A"/>
<path id="Fill 69" fill-rule="evenodd" clip-rule="evenodd" d="M35.6049 43.2129V47.7724L36.1392 47.9365V44.6201C36.1392 44.5203 36.2152 44.4625 36.3091 44.4914L36.4287 44.5282C36.5037 44.5511 36.5697 44.6239 36.5914 44.7069L37.3172 47.4977C37.322 47.5161 37.3243 47.5343 37.3243 47.552V48.3005L37.8587 48.4645V47.6083L37.0166 44.3918C37.0068 44.3545 37.0069 44.3178 37.0166 44.2866L37.1999 43.7027L36.6483 43.5334L36.5914 43.7169C36.5697 43.7864 36.5036 43.8185 36.4287 43.7955L36.3091 43.7587C36.2152 43.73 36.1392 43.6255 36.1392 43.5257V43.377L35.6049 43.2129Z" fill="#F2AF2A"/>
<path id="Fill 70" fill-rule="evenodd" clip-rule="evenodd" d="M40.0107 44.5684L39.9532 44.7876C39.9338 44.8614 39.8661 44.8965 39.7888 44.8728L39.7886 44.8727C39.7113 44.8489 39.6436 44.7726 39.6241 44.6869L39.566 44.4319L39.079 44.2822L39.515 46.0502C39.5194 46.0675 39.5214 46.0849 39.5214 46.1016V48.9777L40.0558 49.1419V46.2657C40.0558 46.2489 40.0579 46.2332 40.0622 46.2184L40.4965 44.7176L40.0107 44.5684Z" fill="#F2AF2A"/>
<path id="Fill 71" fill-rule="evenodd" clip-rule="evenodd" d="M32.2119 42.1729V45.3604C32.2119 46.7163 32.83 47.0665 33.2956 47.2119C33.7609 47.3523 34.3791 47.3817 34.3791 46.0259V44.7823L33.849 44.6194V45.9854C33.849 46.4035 33.6472 46.5813 33.2956 46.4733C33.1303 46.4225 32.7463 46.2405 32.7463 45.6468V42.3369L32.2119 42.1729Z" fill="#F2AF2A"/>
<path id="Fill 72" fill-rule="evenodd" clip-rule="evenodd" d="M22.2754 39.2316C22.2754 39.1894 22.2894 39.1549 22.3125 39.131L21.803 38.9746V43.5341L22.2754 43.6791V39.2316Z" fill="#F2AF2A"/>
</g>
</g>
<g id="Group 12663">
<mask id="mask0_3163_4573" style="mask-type:alpha" maskUnits="userSpaceOnUse" x="0" y="30" width="60" height="30">
<rect id="Rectangle 1253" y="30" width="60" height="30" fill="#C4C4C4"/>
</mask>
<g mask="url(#mask0_3163_4573)">
<circle id="Ellipse 362" cx="30" cy="30" r="29" stroke="#FFCA0D" stroke-width="2"/>
</g>
</g>
</g>
</svg>
