<svg width="12" height="12" viewBox="0 0 12 12" fill="none" xmlns="http://www.w3.org/2000/svg">
<g id="Icon/Font Awesome Free/Solid/E/edit">
<path id="Vector" d="M7.98957 2.99923L9.55554 4.5652C9.62151 4.63117 9.62151 4.73881 9.55554 4.80478L5.76388 8.59645L4.15276 8.77527C3.93749 8.79957 3.7552 8.61728 3.7795 8.40201L3.95832 6.79089L7.74999 2.99923C7.81596 2.93325 7.9236 2.93325 7.98957 2.99923ZM10.8021 2.60166L9.95485 1.75444C9.69096 1.49055 9.26214 1.49055 8.99651 1.75444L8.38193 2.36902C8.31596 2.43499 8.31596 2.54263 8.38193 2.6086L9.9479 4.17457C10.0139 4.24055 10.1215 4.24055 10.1875 4.17457L10.8021 3.55999C11.066 3.29437 11.066 2.86555 10.8021 2.60166ZM7.66665 7.5652V9.33256H2.1111V3.777H6.10068C6.15624 3.777 6.20832 3.75444 6.24825 3.71624L6.9427 3.0218C7.07464 2.88985 6.98089 2.66589 6.79513 2.66589H1.83332C1.37325 2.66589 0.999987 3.03916 0.999987 3.49923V9.61034C0.999987 10.0704 1.37325 10.4437 1.83332 10.4437H7.94443C8.4045 10.4437 8.77776 10.0704 8.77776 9.61034V6.87076C8.77776 6.68499 8.55381 6.59298 8.42186 6.72319L7.72742 7.41763C7.68922 7.45756 7.66665 7.50964 7.66665 7.5652Z" fill="#727682"/>
</g>
</svg>
