<svg width="18" height="14" viewBox="0 0 18 14" fill="none" xmlns="http://www.w3.org/2000/svg">
<g id="Icon/Solid/Sign Out Alt">
<path id="Vector" d="M17.7509 7.6193L11.7506 13.7433C11.2148 14.2901 10.2862 13.9073 10.2862 13.1236V9.62418H5.42884C4.95382 9.62418 4.57166 9.23414 4.57166 8.74932V5.2499C4.57166 4.76509 4.95382 4.37505 5.42884 4.37505H10.2862V0.87563C10.2862 0.0955512 11.2113 -0.290843 11.7506 0.255941L17.7509 6.37992C18.083 6.72258 18.083 7.27665 17.7509 7.6193ZM6.85748 13.561V12.1029C6.85748 11.8623 6.66462 11.6655 6.42889 11.6655H3.42874C2.79657 11.6655 2.28583 11.1442 2.28583 10.499V3.50019C2.28583 2.85499 2.79657 2.33372 3.42874 2.33372H6.42889C6.66462 2.33372 6.85748 2.13688 6.85748 1.89629V0.438203C6.85748 0.197618 6.66462 0.000775291 6.42889 0.000775291H3.42874C1.53579 0.000775291 0 1.56822 0 3.50019V10.499C0 12.431 1.53579 13.9985 3.42874 13.9985H6.42889C6.66462 13.9985 6.85748 13.8016 6.85748 13.561Z" fill="#727682"/>
</g>
</svg>
