<svg width="30" height="31" viewBox="0 0 30 31" fill="none" xmlns="http://www.w3.org/2000/svg">
<g id="Group 12465">
<g id="Group 7">
<g id="Ellipse 1">
<path d="M-9.15527e-05 15.8942C-9.15527e-05 7.66483 6.67115 0.993591 14.9005 0.993591C23.1299 0.993591 29.8012 7.66483 29.8012 15.8942C29.8012 24.1236 23.1299 30.7949 14.9005 30.7949C6.67115 30.7949 -9.15527e-05 24.1236 -9.15527e-05 15.8942ZM26.2293 15.8942C26.2293 9.63751 21.1573 4.56543 14.9005 4.56543C8.64382 4.56543 3.57175 9.63751 3.57175 15.8942C3.57175 22.1509 8.64382 27.223 14.9005 27.223C21.1573 27.223 26.2293 22.1509 26.2293 15.8942Z" fill="white"/>
<path d="M-9.15527e-05 15.8942C-9.15527e-05 7.66483 6.67115 0.993591 14.9005 0.993591C23.1299 0.993591 29.8012 7.66483 29.8012 15.8942C29.8012 24.1236 23.1299 30.7949 14.9005 30.7949C6.67115 30.7949 -9.15527e-05 24.1236 -9.15527e-05 15.8942ZM26.2293 15.8942C26.2293 9.63751 21.1573 4.56543 14.9005 4.56543C8.64382 4.56543 3.57175 9.63751 3.57175 15.8942C3.57175 22.1509 8.64382 27.223 14.9005 27.223C21.1573 27.223 26.2293 22.1509 26.2293 15.8942Z" fill="url(#paint0_linear_3163_4993)"/>
</g>
<g id="Group 12822">
<g id="04 04">
<path id="Fill 2" fill-rule="evenodd" clip-rule="evenodd" d="M26.0535 10.2322C26.0535 10.2322 26.0576 10.2362 26.0635 10.2418C26.0601 10.2385 26.0573 10.2358 26.0535 10.2322Z" fill="url(#paint1_linear_3163_4993)"/>
<g id="Vector">
<path fill-rule="evenodd" clip-rule="evenodd" d="M9.29272 12.4794C9.26763 12.4503 9.26855 12.4095 9.30206 12.3906C10.2089 11.8798 21.5882 5.74105 25.8369 16.8287C25.8528 16.8703 25.8249 16.9183 25.7804 16.9183C25.0873 16.9196 20.674 17.1683 20.7867 23.3045C20.787 23.3218 20.7801 23.3393 20.7676 23.3513L12.7652 30.9828C12.7262 31.02 12.6616 30.9928 12.661 30.9389L12.5428 20.6184C12.5426 20.5972 12.5533 20.5773 12.5711 20.5658L15.8645 18.447C15.8798 18.4372 15.89 18.421 15.8923 18.4029L16.191 16.0371C16.1975 15.9862 16.1426 15.9502 16.0985 15.9763L11.7471 18.5516C11.729 18.5623 11.7176 18.5816 11.7169 18.6027L11.4938 25.4754C11.492 25.5301 11.4251 25.5555 11.3874 25.5159L9.76779 23.8111C9.75544 23.7981 9.74936 23.7803 9.75114 23.7625L10.7077 14.1522C10.7093 14.1354 10.704 14.1186 10.693 14.1059L9.29272 12.4794Z" fill="white"/>
<path fill-rule="evenodd" clip-rule="evenodd" d="M9.29272 12.4794C9.26763 12.4503 9.26855 12.4095 9.30206 12.3906C10.2089 11.8798 21.5882 5.74105 25.8369 16.8287C25.8528 16.8703 25.8249 16.9183 25.7804 16.9183C25.0873 16.9196 20.674 17.1683 20.7867 23.3045C20.787 23.3218 20.7801 23.3393 20.7676 23.3513L12.7652 30.9828C12.7262 31.02 12.6616 30.9928 12.661 30.9389L12.5428 20.6184C12.5426 20.5972 12.5533 20.5773 12.5711 20.5658L15.8645 18.447C15.8798 18.4372 15.89 18.421 15.8923 18.4029L16.191 16.0371C16.1975 15.9862 16.1426 15.9502 16.0985 15.9763L11.7471 18.5516C11.729 18.5623 11.7176 18.5816 11.7169 18.6027L11.4938 25.4754C11.492 25.5301 11.4251 25.5555 11.3874 25.5159L9.76779 23.8111C9.75544 23.7981 9.74936 23.7803 9.75114 23.7625L10.7077 14.1522C10.7093 14.1354 10.704 14.1186 10.693 14.1059L9.29272 12.4794Z" fill="url(#paint2_linear_3163_4993)"/>
<path fill-rule="evenodd" clip-rule="evenodd" d="M25.9471 10.8131C26.0146 10.88 26.0818 10.9476 26.1489 11.0162C26.1526 11.02 26.1552 11.0228 26.1584 11.0261C26.1534 11.0209 26.1496 11.0169 26.1489 11.0162C26.1489 11.0161 26.149 11.0163 26.1489 11.0162C17.6541 2.08386 6.48221 7.58307 5.72768 7.96984C5.70232 7.98284 5.67396 7.9758 5.65504 7.95449L0.681171 2.35087C0.651139 2.31703 0.658601 2.26595 0.70218 2.2538C1.79213 1.94996 13.0402 -1.03779 20.1909 2.97455C29.1193 7.9845 29.5061 19.7786 29.3721 23.7148C29.3695 23.7933 29.2474 23.7849 29.2419 23.7066C29.0348 20.7486 27.999 13.5812 22.8495 10.4994C16.1852 6.51117 9.32741 10.9775 8.74377 11.3734C8.71807 11.3908 8.68796 11.3838 8.66699 11.3609L6.34274 8.82081C6.31511 8.79061 6.32548 8.74165 6.36213 8.72345C17.2515 3.31636 24.6834 9.59668 25.9471 10.8131Z" fill="white"/>
<path fill-rule="evenodd" clip-rule="evenodd" d="M25.9471 10.8131C26.0146 10.88 26.0818 10.9476 26.1489 11.0162C26.1526 11.02 26.1552 11.0228 26.1584 11.0261C26.1534 11.0209 26.1496 11.0169 26.1489 11.0162C26.1489 11.0161 26.149 11.0163 26.1489 11.0162C17.6541 2.08386 6.48221 7.58307 5.72768 7.96984C5.70232 7.98284 5.67396 7.9758 5.65504 7.95449L0.681171 2.35087C0.651139 2.31703 0.658601 2.26595 0.70218 2.2538C1.79213 1.94996 13.0402 -1.03779 20.1909 2.97455C29.1193 7.9845 29.5061 19.7786 29.3721 23.7148C29.3695 23.7933 29.2474 23.7849 29.2419 23.7066C29.0348 20.7486 27.999 13.5812 22.8495 10.4994C16.1852 6.51117 9.32741 10.9775 8.74377 11.3734C8.71807 11.3908 8.68796 11.3838 8.66699 11.3609L6.34274 8.82081C6.31511 8.79061 6.32548 8.74165 6.36213 8.72345C17.2515 3.31636 24.6834 9.59668 25.9471 10.8131Z" fill="url(#paint3_linear_3163_4993)"/>
</g>
</g>
</g>
</g>
</g>
<defs>
<linearGradient id="paint0_linear_3163_4993" x1="5.0353" y1="31.7197" x2="28.157" y2="-0.342326" gradientUnits="userSpaceOnUse">
<stop stop-color="#FFB800"/>
<stop offset="0.375546" stop-color="#FFDD00"/>
<stop offset="1" stop-color="#FFDD00" stop-opacity="0.18"/>
</linearGradient>
<linearGradient id="paint1_linear_3163_4993" x1="26.0585" y1="10.2322" x2="26.0585" y2="10.2418" gradientUnits="userSpaceOnUse">
<stop stop-color="white"/>
<stop offset="1" stop-color="white" stop-opacity="0.7"/>
</linearGradient>
<linearGradient id="paint2_linear_3163_4993" x1="16.94" y1="14.8109" x2="2.45237" y2="1.31316" gradientUnits="userSpaceOnUse">
<stop stop-color="#6231AD"/>
<stop offset="1" stop-color="#6231AD" stop-opacity="0.74"/>
</linearGradient>
<linearGradient id="paint3_linear_3163_4993" x1="16.94" y1="14.8109" x2="2.45237" y2="1.31316" gradientUnits="userSpaceOnUse">
<stop stop-color="#6231AD"/>
<stop offset="1" stop-color="#6231AD" stop-opacity="0.74"/>
</linearGradient>
</defs>
</svg>
