<svg width="27" height="31" viewBox="0 0 27 31" fill="none" xmlns="http://www.w3.org/2000/svg">
<g id="Group 11345">
<path id="Combined Shape" d="M26.8667 4.5474C23.9358 1.65606 19.9653 0 15.7336 0C7.04419 0 0 6.93959 0 15.5C0 24.0604 7.04419 31 15.7336 31C19.6439 31 23.3365 29.5869 26.1972 27.0757L23.509 24.1037C21.3815 25.9712 18.6429 27.0193 15.7336 27.0193C9.27582 27.0193 4.04072 21.8619 4.04072 15.5C4.04072 9.13807 9.27582 3.98072 15.7336 3.98072C18.8816 3.98072 21.827 5.20921 24.0075 7.36026L26.8667 4.5474Z" fill="#FFE200"/>
<g id="Group 7">
<circle id="Ellipse 1" cx="16.0168" cy="16.0162" r="8.78333" fill="#FEF853"/>
<path id="Star 1" d="M16.0166 9.30066L17.5246 13.9418L22.4046 13.9418L18.4566 16.8101L19.9646 21.4512L16.0166 18.5829L12.0687 21.4512L13.5767 16.8101L9.62872 13.9418L14.5087 13.9418L16.0166 9.30066Z" fill="#FFA600"/>
</g>
</g>
</svg>
