<svg width="85" height="48" viewBox="0 0 85 48" fill="none" xmlns="http://www.w3.org/2000/svg">
<g id="Group 12375">
<g id="Group 12288">
<g id="25503">
<path id="Fill 3" fill-rule="evenodd" clip-rule="evenodd" d="M12.3868 37.8607C12.3868 21.2068 25.8874 7.7063 42.5412 7.7063C59.1951 7.7063 72.6956 21.2068 72.6956 37.8607C72.6956 54.5145 59.1951 68.015 42.5412 68.015C25.8874 68.015 12.3868 54.5145 12.3868 37.8607Z" fill="#743CC9"/>
<path id="Fill 4" fill-rule="evenodd" clip-rule="evenodd" d="M16.9502 37.8611C16.9502 23.7273 28.4079 12.2695 42.5418 12.2695C56.6756 12.2695 68.1334 23.7273 68.1334 37.8611C68.1334 51.9949 56.6756 63.4527 42.5418 63.4527C28.4079 63.4527 16.9502 51.9949 16.9502 37.8611Z" fill="#6231AD"/>
<path id="Fill 5" fill-rule="evenodd" clip-rule="evenodd" d="M55.9306 16.017C58.4792 19.9956 59.9569 24.7261 59.9569 29.8017C59.9569 43.9356 48.4991 55.3933 34.3653 55.3933C29.4565 55.3933 24.8714 54.0102 20.9761 51.6141C25.5243 58.7147 33.4833 63.4209 42.5414 63.4209C56.6752 63.4209 68.133 51.9632 68.133 37.8293C68.133 28.6041 63.2512 20.5202 55.9306 16.017Z" fill="#542898"/>
<path id="Fill 6" fill-rule="evenodd" clip-rule="evenodd" d="M21.4332 40.2025C21.4332 27.726 31.5475 17.6118 44.024 17.6118C51.3167 17.6118 57.8011 21.0683 61.9316 26.4315C58.0306 19.6593 50.7191 15.1002 42.3425 15.1002C29.8659 15.1002 19.7517 25.2144 19.7517 37.6909C19.7517 42.8748 21.499 47.6497 24.435 51.462C22.5256 48.1473 21.4332 44.3025 21.4332 40.2025Z" fill="#542898"/>
<path id="Fill 7" fill-rule="evenodd" clip-rule="evenodd" d="M39.7093 32.4978C39.7093 33.3836 39.7184 34.2693 39.7039 35.1547C39.6994 35.4252 39.7923 35.5024 40.0536 35.4956C40.6758 35.4797 41.2987 35.4823 41.9211 35.4926C42.9312 35.5091 43.9358 35.455 44.9314 35.2796C46.3873 35.0231 47.3088 34.177 47.5137 32.8527C47.7113 31.5744 47.1642 30.3737 45.9102 29.8936C45.1297 29.5948 44.3015 29.5472 43.4802 29.5255C42.3323 29.4953 41.183 29.5209 40.0344 29.5079C39.7789 29.505 39.7016 29.5917 39.7049 29.841C39.7164 30.7266 39.7093 31.6123 39.7093 32.4978ZM39.6989 42.4021C39.7019 42.4021 39.705 42.4021 39.708 42.4021C39.708 43.0951 39.6996 43.7881 39.7112 44.4809C39.718 44.8831 39.6817 45.2891 39.7669 45.6871C39.8485 46.0681 40.015 46.2015 40.3975 46.2343C41.3256 46.3139 42.2559 46.2932 43.1843 46.2723C43.9541 46.2549 44.7231 46.2057 45.4758 45.9994C47.8825 45.3398 48.678 42.5483 47.5132 40.7331C46.9694 39.8856 46.0956 39.5405 45.1463 39.3652C44.5847 39.2614 44.0142 39.254 43.445 39.2267C42.2613 39.1697 41.0776 39.2165 39.894 39.1993C39.753 39.1974 39.6947 39.2494 39.6956 39.4029C39.7018 40.4026 39.6989 41.4024 39.6989 42.4021ZM37.9223 54.3492C37.9214 53.1209 37.9209 51.8926 37.9194 50.6643C37.9191 50.3112 37.9179 50.3099 37.5723 50.3098C35.3614 50.3094 33.1505 50.3097 30.9396 50.3094C30.5614 50.3093 30.5563 50.3048 30.5559 49.9297C30.555 49.0086 30.5544 48.0873 30.5564 47.1662C30.5571 46.8277 30.5781 46.8095 30.9147 46.8077C31.3969 46.8051 31.8785 46.8085 32.3604 46.7656C33.0456 46.7045 33.3896 46.3692 33.4518 45.682C33.4891 45.2705 33.4922 44.8587 33.4922 44.4465C33.4924 40.0334 33.4933 35.6203 33.4903 31.2073C33.4901 30.8218 33.4709 30.4358 33.4471 30.0509C33.4096 29.4443 32.9981 29.0466 32.3859 28.9843C31.8782 28.9326 31.3699 28.9295 30.8616 28.9408C30.6322 28.9459 30.5512 28.8628 30.5529 28.6363C30.5601 27.6712 30.5615 26.7061 30.552 25.7411C30.5497 25.4926 30.6509 25.431 30.883 25.4316C33.1026 25.4381 35.3224 25.4356 37.542 25.4353C37.9185 25.4353 37.9193 25.4345 37.9195 25.058C37.92 23.9438 37.9263 22.8294 37.9153 21.7154C37.9126 21.451 37.9975 21.3673 38.2635 21.3712C39.2196 21.3854 40.1762 21.3862 41.1323 21.3707C41.4074 21.3664 41.4724 21.4649 41.47 21.721C41.4589 22.8526 41.4724 23.9846 41.4599 25.1162C41.457 25.3745 41.542 25.4486 41.7915 25.4403C42.291 25.4239 42.7914 25.4358 43.2916 25.4353C43.6445 25.4349 43.6454 25.4342 43.6456 25.0918C43.646 23.9952 43.6455 22.8985 43.6457 21.8017C43.6457 21.3771 43.646 21.3768 44.0825 21.3767C44.9862 21.3766 45.8899 21.3765 46.7936 21.3768C47.1904 21.377 47.1917 21.3775 47.1919 21.7651C47.1926 22.9319 47.1995 24.0989 47.1868 25.2656C47.1839 25.527 47.2805 25.6176 47.5267 25.6459C49.1515 25.8324 50.6225 26.3884 51.8595 27.4885C52.4529 28.0163 52.8933 28.6598 53.1935 29.388C53.8709 31.031 53.7778 32.6459 52.9171 34.1991C52.294 35.3236 51.352 36.1185 50.2092 36.6883C49.876 36.8545 49.5262 36.984 49.1897 37.1819C49.6096 37.3175 50.0317 37.447 50.4491 37.5899C51.3751 37.9071 52.2128 38.3824 52.8936 39.0891C53.7623 39.9909 54.3021 41.0641 54.4677 42.3174C54.7921 44.7753 53.8941 46.7386 52.0097 48.2687C50.7152 49.3196 49.1787 49.8251 47.5423 50.0378C47.2789 50.072 47.1834 50.1551 47.1857 50.4277C47.1966 51.7347 47.1886 53.0419 47.1873 54.3492C46.0116 54.3492 44.8359 54.3492 43.6604 54.3492C43.6552 54.2355 43.6457 54.1218 43.6456 54.0081C43.6445 52.8855 43.6362 51.7628 43.651 50.6403C43.6547 50.3667 43.5655 50.2932 43.3048 50.3043C42.8583 50.3234 42.4104 50.3077 41.9631 50.31C41.4111 50.3128 41.4677 50.2516 41.4649 50.7982C41.4591 51.9818 41.4545 53.1655 41.4494 54.3492C40.2737 54.3492 39.098 54.3492 37.9223 54.3492Z" fill="#4D1C8B"/>
</g>
<g id="Group 12287">
<path id="Ellipse 316" d="M6.31721 52.6027C2.36292 43.4213 2.2179 33.045 5.91408 23.7566L8.04073 24.6029C4.56901 33.3272 4.70522 43.0734 8.4194 51.6974L6.31721 52.6027Z" fill="#743CC9"/>
<path id="Mask" d="M8.96374 28.0831L9.20026 28.5228L9.64032 28.2869L10.9238 27.5988L11.3645 27.3626L11.1282 26.9219L8.20043 21.4601L7.96421 21.0194L7.52353 21.2556L2.06166 24.1834L1.62099 24.4196L1.85719 24.8603L2.54517 26.1438L2.78105 26.5839L3.22146 26.3486L6.30516 24.7012L7.30763 25.004L8.96374 28.0831Z" fill="#743CC9" stroke="#743CC9"/>
</g>
<g id="Group 12285">
<g id="Group 12286">
<path id="Ellipse 316_2" d="M79.338 22.7833C83.2923 31.9647 83.4373 42.341 79.7411 51.6294L77.6145 50.7831C81.0862 42.0588 80.95 32.3126 77.2358 23.6886L79.338 22.7833Z" fill="#743CC9"/>
<path id="Mask_2" d="M76.6918 47.3029L76.4553 46.8632L76.0152 47.0991L74.7317 47.7872L74.2911 48.0234L74.5273 48.4641L77.4551 53.9259L77.6913 54.3666L78.132 54.1304L83.5939 51.2026L84.0345 50.9664L83.7983 50.5257L83.1103 49.2422L82.8745 48.8021L82.4341 49.0374L79.3504 50.6847L78.3479 50.382L76.6918 47.3029Z" fill="#743CC9" stroke="#743CC9"/>
</g>
</g>
</g>
</g>
</svg>
