
<svg width="24" height="24" viewBox="0 0 24 24" fill="none" xmlns="http://www.w3.org/2000/svg">
<g id="Icon/Font Awesome Free/Solid/H/home">
<path id="Vector" d="M11.7348 8.25845L5.3336 13.5306V19.2208C5.3336 19.3681 5.39212 19.5094 5.4963 19.6136C5.60048 19.7178 5.74178 19.7763 5.88911 19.7763L9.77978 19.7662C9.92663 19.7655 10.0672 19.7067 10.1708 19.6026C10.2744 19.4985 10.3325 19.3576 10.3325 19.2107V15.8877C10.3325 15.7404 10.391 15.5991 10.4952 15.4949C10.5994 15.3907 10.7407 15.3322 10.888 15.3322H13.1101C13.2574 15.3322 13.3987 15.3907 13.5029 15.4949C13.6071 15.5991 13.6656 15.7404 13.6656 15.8877V19.2083C13.6654 19.2814 13.6796 19.3538 13.7074 19.4214C13.7352 19.489 13.7761 19.5505 13.8277 19.6022C13.8793 19.654 13.9406 19.6951 14.0081 19.7231C14.0756 19.7511 14.148 19.7656 14.2211 19.7656L18.1104 19.7763C18.2577 19.7763 18.399 19.7178 18.5032 19.6136C18.6074 19.5094 18.6659 19.3681 18.6659 19.2208V13.5268L12.266 8.25845C12.1908 8.19781 12.0971 8.16473 12.0004 8.16473C11.9038 8.16473 11.8101 8.19781 11.7348 8.25845ZM21.8462 11.8419L18.9437 9.44933V4.64033C18.9437 4.52983 18.8998 4.42386 18.8216 4.34572C18.7435 4.26759 18.6375 4.22369 18.527 4.22369H16.5827C16.4722 4.22369 16.3663 4.26759 16.2881 4.34572C16.21 4.42386 16.1661 4.52983 16.1661 4.64033V7.16131L13.0577 4.60387C12.7593 4.3584 12.385 4.22418 11.9987 4.22418C11.6124 4.22418 11.2381 4.3584 10.9398 4.60387L2.1512 11.8419C2.10901 11.8767 2.07411 11.9196 2.04848 11.9679C2.02286 12.0163 2.00701 12.0692 2.00185 12.1237C1.9967 12.1782 2.00232 12.2332 2.01842 12.2855C2.03451 12.3378 2.06076 12.3864 2.09565 12.4286L2.981 13.5049C3.0158 13.5472 3.0586 13.5823 3.10696 13.608C3.15532 13.6338 3.20828 13.6497 3.26282 13.655C3.31735 13.6603 3.37239 13.6547 3.42477 13.6387C3.47716 13.6226 3.52587 13.5964 3.56811 13.5615L11.7348 6.83495C11.8101 6.7743 11.9038 6.74123 12.0004 6.74123C12.0971 6.74123 12.1908 6.7743 12.266 6.83495L20.4331 13.5615C20.4753 13.5964 20.5239 13.6227 20.5762 13.6388C20.6286 13.6548 20.6835 13.6605 20.738 13.6553C20.7925 13.6502 20.8455 13.6343 20.8938 13.6087C20.9422 13.5831 20.985 13.5482 21.0199 13.506L21.9052 12.4297C21.9401 12.3872 21.9662 12.3384 21.9821 12.2858C21.998 12.2333 22.0034 12.1781 21.9979 12.1235C21.9924 12.0689 21.9762 12.0159 21.9502 11.9675C21.9241 11.9192 21.8888 11.8765 21.8462 11.8419Z" fill="#B5C0C8"/>
</g>
</svg>
