<svg width="24" height="24" viewBox="0 0 24 24" fill="none" xmlns="http://www.w3.org/2000/svg">
<g id="Frame 12281">
<g id="Group 12495">
<path id="Union" fill-rule="evenodd" clip-rule="evenodd" d="M14.2426 14.2426C11.8995 16.5858 8.1005 16.5858 5.75736 14.2426C3.41421 11.8995 3.41421 8.1005 5.75736 5.75736C8.10051 3.41421 11.8995 3.41421 14.2426 5.75736C16.5858 8.10051 16.5858 11.8995 14.2426 14.2426ZM14.0642 16.893C10.9964 18.7047 6.97894 18.2926 4.34315 15.6569C1.21895 12.5327 1.21895 7.46734 4.34315 4.34315C7.46734 1.21895 12.5327 1.21895 15.6569 4.34315C18.5417 7.22794 18.7627 11.7678 16.32 14.9062L21.3137 19.8999C21.7042 20.2904 21.7042 20.9236 21.3137 21.3141L20.6066 22.0212C20.216 22.4117 19.5829 22.4117 19.1923 22.0212L14.0642 16.893Z" fill="#B5C0C8"/>
</g>
</g>
</svg>
